<svg width="24" height="24" viewBox="0 0 24 24" fill="none" xmlns="http://www.w3.org/2000/svg">
<path d="M12 0C7.02938 0 3 4.02938 3 9C3 11.1292 3.93825 13.0016 4.97662 14.625L11.388 23.6835C11.5286 23.8822 11.757 24 12 24C12.243 24 12.4714 23.8822 12.612 23.6835L19.0234 14.625C20.0156 13.2893 21 11.1292 21 9C21 4.02938 16.9706 0 12 0ZM12 14.25C9.1005 14.25 6.75 11.8995 6.75 9C6.75 6.1005 9.1005 3.75 12 3.75C14.8995 3.75 17.25 6.1005 17.25 9C17.25 11.8995 14.8995 14.25 12 14.25Z" fill="black"/>
<path d="M12 4.5C9.51487 4.5 7.5 6.51487 7.5 9C7.5 11.4851 9.51487 13.5 12 13.5C14.4851 13.5 16.5 11.4851 16.5 9C16.5 6.51487 14.4851 4.5 12 4.5ZM12 12.75C9.92887 12.75 8.25 11.0707 8.25 9C8.25 6.92925 9.92887 5.25 12 5.25C14.0711 5.25 15.75 6.92925 15.75 9C15.75 11.0707 14.0711 12.75 12 12.75Z" fill="black"/>
</svg>
